<svg width="24" height="24" viewBox="0 0 24 24" fill="none" xmlns="http://www.w3.org/2000/svg">
<g clip-path="url(#clip0_65_1025)">
<path d="M12.0001 2.04004C6.50006 2.04004 -11.5 16.43 -11.5 21.96C-11.5 26.96 -7.84 31.11 -3.06 31.86L10.4401 14.96H7.90006V12.06H10.4401V9.85004C10.4401 7.34004 11.9301 5.96004 14.2201 5.96004C15.3101 5.96004 16.4501 6.15004 16.4501 6.15004V8.62004H15.1901C13.9501 8.62004 13.5601 9.39004 13.5601 10.18V12.06H16.3401L15.8901 14.96H13.5601V21.96C15.9165 21.5879 18.0623 20.3856 19.61 18.5701C21.1577 16.7546 22.0054 14.4457 22.0001 12.06C22.0001 6.53004 17.5001 2.04004 12.0001 2.04004Z" fill="#42D6D6"/>
</g>
<defs>
<clipPath id="clip0_65_1025">
<rect width="24" height="24" rx="5" fill="white"/>
</clipPath>
</defs>
</svg>
